<?xml version="1.0" encoding="UTF-8"?>
<svg id="Capa_1" data-name="Capa 1" xmlns="http://www.w3.org/2000/svg" version="1.1" viewBox="0 0 800 800">
  <defs>
    <style>
      .cls-1 {
        fill: #fff;
        stroke-width: 0px;
      }
    </style>
  </defs>
  <path class="cls-1" d="M702.3,128.4H97.7C43.8,128.4,0,172.3,0,226.2v347.7c0,53.9,43.8,97.7,97.7,97.7h604.6c53.9,0,97.7-43.8,97.7-97.7V226.2c0-53.9-43.8-97.7-97.7-97.7ZM654.5,192.2l-254.5,164-254.5-164h509.1ZM702.3,607.8H97.7c-18.7,0-34-15.2-34-34V228l316.6,203.6c.4.3.9.4,1.3.7.5.3.9.5,1.4.7,2.5,1.3,5,2.3,7.6,3,.3,0,.5.1.8.2,2.8.7,5.7,1.1,8.6,1.1h0c2.9,0,5.7-.4,8.6-1.1.3,0,.5,0,.8-.2,2.6-.7,5.1-1.7,7.6-3,.5-.2.9-.5,1.4-.7.4-.2.9-.4,1.3-.7l316.6-203.6v345.9c0,18.7-15.3,34-34,34Z"/>
</svg>